<svg width="24" height="16" viewBox="0 0 24 16" fill="none" xmlns="http://www.w3.org/2000/svg">
<g clip-path="url(#clip0_1_4800)">
<path d="M11.8658 3.01141e-05C9.31505 -0.00551087 6.82119 0.753721 4.7061 2.17973C2.59101 3.60574 0.95178 5.63306 0 8.00003C0.955452 10.3647 2.59539 12.3899 4.70946 13.816C6.82353 15.242 9.31535 16.0039 11.8653 16.0039C14.4153 16.0039 16.9071 15.242 19.0211 13.816C21.1352 12.3899 22.7751 10.3647 23.7306 8.00003C22.7789 5.63322 21.1398 3.606 19.0249 2.18001C16.91 0.754014 14.4164 -0.00531077 11.8658 3.01141e-05ZM11.8658 13.335C10.8134 13.3236 9.78786 13.001 8.91835 12.4079C8.04884 11.8147 7.3742 10.9776 6.97936 10.0018C6.58451 9.02598 6.48712 7.95516 6.69944 6.92412C6.91175 5.89309 7.42429 4.94791 8.17252 4.20759C8.92075 3.46727 9.87124 2.96489 10.9043 2.76369C11.9374 2.5625 13.0069 2.67148 13.9782 3.07692C14.9495 3.48237 15.7791 4.16614 16.3627 5.04218C16.9463 5.91821 17.2577 6.94735 17.2578 8.00003C17.2462 9.42142 16.6725 10.7804 15.6622 11.7801C14.6518 12.7797 13.287 13.3388 11.8658 13.335ZM11.8658 4.80003C11.2346 4.80733 10.6197 5.00119 10.0985 5.35722C9.57725 5.71325 9.17293 6.21554 8.93644 6.80086C8.69995 7.38619 8.64184 8.02841 8.76944 8.64669C8.89703 9.26497 9.20463 9.83169 9.65351 10.2755C10.1024 10.7194 10.6725 11.0205 11.2921 11.141C11.9117 11.2615 12.5531 11.196 13.1355 10.9527C13.718 10.7095 14.2155 10.2994 14.5655 9.77395C14.9154 9.24854 15.1022 8.63135 15.1022 8.00003C15.0945 7.14729 14.7499 6.33221 14.1436 5.73269C13.5373 5.13316 12.7184 4.79788 11.8658 4.80003Z" fill="#585858"/>
</g>
<defs>
<clipPath id="clip0_1_4800">
<rect width="23.73" height="16" fill="white"/>
</clipPath>
</defs>
</svg>
